<svg width="40" height="40" viewBox="0 0 40 40" fill="none" xmlns="http://www.w3.org/2000/svg">
  <defs>
    <linearGradient id="fsGrad" x1="0" y1="0" x2="40" y2="40" gradientUnits="userSpaceOnUse">
      <stop offset="0.2" stop-color="#FFDB6E"/>
      <stop offset="1" stop-color="#FFBC5E"/>
    </linearGradient>
  </defs>
  <!-- Browser top -->
  <rect x="5" y="5" width="30" height="20" rx="3" stroke="url(#fsGrad)" stroke-width="2" fill="url(#fsGrad)" fill-opacity="0.12"/>
  <line x1="5" y1="11" x2="35" y2="11" stroke="url(#fsGrad)" stroke-width="1.8"/>
  <circle cx="9" cy="8" r="1.2" fill="url(#fsGrad)"/>
  <circle cx="13" cy="8" r="1.2" fill="url(#fsGrad)"/>
  <circle cx="17" cy="8" r="1.2" fill="url(#fsGrad)"/>
  <!-- Code brackets on browser -->
  <path d="M12 16L9 18.5L12 21M28 16L31 18.5L28 21M22 15L18 22" stroke="url(#fsGrad)" stroke-width="1.5" stroke-linecap="round" stroke-linejoin="round"/>
  <!-- Layered Server / Database below -->
  <path d="M9 28C9 26.5 14 25.5 20 25.5C26 25.5 31 26.5 31 28C31 29.5 26 30.5 20 30.5C14 30.5 9 29.5 9 28Z" stroke="url(#fsGrad)" stroke-width="1.8" fill="url(#fsGrad)" fill-opacity="0.2"/>
  <path d="M9 28V32C9 33.5 14 34.5 20 34.5C26 34.5 31 33.5 31 32V28" stroke="url(#fsGrad)" stroke-width="1.8"/>
</svg>
